HIERARCHY
ROOT Hips
{
  OFFSET 0.143595 90.2887 1.75943
  CHANNELS 6 Xposition Yposition Zposition Zrotation Xrotation Yrotation
  JOINT Spine
  {
    OFFSET 0 9.9235 -1.2273
    CHANNELS 6 Xposition Yposition Zposition Zrotation Xrotation Yrotation
    JOINT Spine1
    {
      OFFSET -0.0001 11.6454 -1.4223
      CHANNELS 6 Xposition Yposition Zposition Zrotation Xrotation Yrotation
      JOINT Spine2
      {
        OFFSET 0.0001 13.3602 -1.6265
        CHANNELS 6 Xposition Yposition Zposition Zrotation Xrotation Yrotation
        JOINT Neck
        {
          OFFSET 0 15.0325 0.7929
          CHANNELS 6 Xposition Yposition Zposition Zrotation Xrotation Yrotation
          JOINT Head
          {
            OFFSET 0 10.3218 3.1424
            CHANNELS 6 Xposition Yposition Zposition Zrotation Xrotation Yrotation
            JOINT HeadTop_End
            {
              OFFSET 0.0002 18.4747 6.6364
              CHANNELS 6 Xposition Yposition Zposition Zrotation Xrotation Yrotation
              End Site
              {
                OFFSET 0 0 0
              }
            }
            JOINT LeftEye
            {
              OFFSET 2.9479 7.6817 9.1207
              CHANNELS 6 Xposition Yposition Zposition Zrotation Xrotation Yrotation
              End Site
              {
                OFFSET 0 0 0
              }
            }
            JOINT RightEye
            {
              OFFSET -2.9445 7.6817 9.1205
              CHANNELS 6 Xposition Yposition Zposition Zrotation Xrotation Yrotation
              End Site
              {
                OFFSET 0 0 0
              }
            }
          }
        }
        JOINT LeftShoulder
        {
          OFFSET 6.1058 9.1104 0.7056
          CHANNELS 6 Xposition Yposition Zposition Zrotation Xrotation Yrotation
          JOINT LeftArm
          {
            OFFSET 12.655 -0.2659 -2.6009
            CHANNELS 6 Xposition Yposition Zposition Zrotation Xrotation Yrotation
            JOINT LeftForeArm
            {
              OFFSET 27.4047 0 0
              CHANNELS 6 Xposition Yposition Zposition Zrotation Xrotation Yrotation
              JOINT LeftHand
              {
                OFFSET 27.6145 0 0
                CHANNELS 6 Xposition Yposition Zposition Zrotation Xrotation Yrotation
                JOINT LeftHandMiddle1
                {
                  OFFSET 12.7755 0 0
                  CHANNELS 6 Xposition Yposition Zposition Zrotation Xrotation Yrotation
                  JOINT LeftHandMiddle2
                  {
                    OFFSET 3.614 0 0
                    CHANNELS 6 Xposition Yposition Zposition Zrotation Xrotation Yrotation
                    JOINT LeftHandMiddle3
                    {
                      OFFSET 3.4598 0 0
                      CHANNELS 6 Xposition Yposition Zposition Zrotation Xrotation Yrotation
                      End Site
                      {
                        OFFSET 3.6802 0 0
                      }
                    }
                  }
                }
                JOINT LeftHandThumb1
                {
                  OFFSET 3.7888 -2.167 3.0031
                  CHANNELS 6 Xposition Yposition Zposition Zrotation Xrotation Yrotation
                  JOINT LeftHandThumb2
                  {
                    OFFSET 3.6754 -2.122 2.122
                    CHANNELS 6 Xposition Yposition Zposition Zrotation Xrotation Yrotation
                    JOINT LeftHandThumb3
                    {
                      OFFSET 3.3944 -1.9597 1.9598
                      CHANNELS 6 Xposition Yposition Zposition Zrotation Xrotation Yrotation
                      End Site
                      {
                        OFFSET 2.6794 -1.5469 1.5469
                      }
                    }
                  }
                }
                JOINT LeftHandIndex1
                {
                  OFFSET 12.2666 -0.2317 2.8221
                  CHANNELS 6 Xposition Yposition Zposition Zrotation Xrotation Yrotation
                  JOINT LeftHandIndex2
                  {
                    OFFSET 3.892 0 0
                    CHANNELS 6 Xposition Yposition Zposition Zrotation Xrotation Yrotation
                    JOINT LeftHandIndex3
                    {
                      OFFSET 3.4152 0 0
                      CHANNELS 6 Xposition Yposition Zposition Zrotation Xrotation Yrotation
                      End Site
                      {
                        OFFSET 3.078 0 0
                      }
                    }
                  }
                }
                JOINT LeftHandRing1
                {
                  OFFSET 12.147 0.0099 -2.2166
                  CHANNELS 6 Xposition Yposition Zposition Zrotation Xrotation Yrotation
                  JOINT LeftHandRing2
                  {
                    OFFSET 3.6012 0 0
                    CHANNELS 6 Xposition Yposition Zposition Zrotation Xrotation Yrotation
                    JOINT LeftHandRing3
                    {
                      OFFSET 3.3073 0 0
                      CHANNELS 6 Xposition Yposition Zposition Zrotation Xrotation Yrotation
                      End Site
                      {
                        OFFSET 3.6601 0 0
                      }
                    }
                  }
                }
                JOINT LeftHandPinky1
                {
                  OFFSET 10.9082 -0.2264 -4.7258
                  CHANNELS 6 Xposition Yposition Zposition Zrotation Xrotation Yrotation
                  JOINT LeftHandPinky2
                  {
                    OFFSET 4.1367 0 0
                    CHANNELS 6 Xposition Yposition Zposition Zrotation Xrotation Yrotation
                    JOINT LeftHandPinky3
                    {
                      OFFSET 2.5948 0 0
                      CHANNELS 6 Xposition Yposition Zposition Zrotation Xrotation Yrotation
                      End Site
                      {
                        OFFSET 2.9239 0 0
                      }
                    }
                  }
                }
              }
            }
          }
        }
        JOINT RightShoulder
        {
          OFFSET -6.1057 9.1105 0.7056
          CHANNELS 6 Xposition Yposition Zposition Zrotation Xrotation Yrotation
          JOINT RightArm
          {
            OFFSET -12.655 -0.266 -2.6009
            CHANNELS 6 Xposition Yposition Zposition Zrotation Xrotation Yrotation
            JOINT RightForeArm
            {
              OFFSET -27.4047 0 0
              CHANNELS 6 Xposition Yposition Zposition Zrotation Xrotation Yrotation
              JOINT RightHand
              {
                OFFSET -27.6145 0 0
                CHANNELS 6 Xposition Yposition Zposition Zrotation Xrotation Yrotation
                JOINT RightHandMiddle1
                {
                  OFFSET -12.7755 0 0
                  CHANNELS 6 Xposition Yposition Zposition Zrotation Xrotation Yrotation
                  JOINT RightHandMiddle2
                  {
                    OFFSET -3.614 0 0
                    CHANNELS 6 Xposition Yposition Zposition Zrotation Xrotation Yrotation
                    JOINT RightHandMiddle3
                    {
                      OFFSET -3.4598 0 0
                      CHANNELS 6 Xposition Yposition Zposition Zrotation Xrotation Yrotation
                      End Site
                      {
                        OFFSET -3.6802 0 0
                      }
                    }
                  }
                }
                JOINT RightHandThumb1
                {
                  OFFSET -3.7888 -2.167 3.0031
                  CHANNELS 6 Xposition Yposition Zposition Zrotation Xrotation Yrotation
                  JOINT RightHandThumb2
                  {
                    OFFSET -3.6754 -2.122 2.122
                    CHANNELS 6 Xposition Yposition Zposition Zrotation Xrotation Yrotation
                    JOINT RightHandThumb3
                    {
                      OFFSET -3.3944 -1.9597 1.9598
                      CHANNELS 6 Xposition Yposition Zposition Zrotation Xrotation Yrotation
                      End Site
                      {
                        OFFSET -2.6794 -1.5469 1.5469
                      }
                    }
                  }
                }
                JOINT RightHandIndex1
                {
                  OFFSET -12.2666 -0.2317 2.8221
                  CHANNELS 6 Xposition Yposition Zposition Zrotation Xrotation Yrotation
                  JOINT RightHandIndex2
                  {
                    OFFSET -3.892 0 0
                    CHANNELS 6 Xposition Yposition Zposition Zrotation Xrotation Yrotation
                    JOINT RightHandIndex3
                    {
                      OFFSET -3.4152 0 0
                      CHANNELS 6 Xposition Yposition Zposition Zrotation Xrotation Yrotation
                      End Site
                      {
                        OFFSET -3.078 0 0
                      }
                    }
                  }
                }
                JOINT RightHandRing1
                {
                  OFFSET -12.147 0.0099 -2.2166
                  CHANNELS 6 Xposition Yposition Zposition Zrotation Xrotation Yrotation
                  JOINT RightHandRing2
                  {
                    OFFSET -3.6012 0 0
                    CHANNELS 6 Xposition Yposition Zposition Zrotation Xrotation Yrotation
                    JOINT RightHandRing3
                    {
                      OFFSET -3.3073 0 0
                      CHANNELS 6 Xposition Yposition Zposition Zrotation Xrotation Yrotation
                      End Site
                      {
                        OFFSET -3.6601 0 0
                      }
                    }
                  }
                }
                JOINT RightHandPinky1
                {
                  OFFSET -10.9082 -0.2264 -4.7258
                  CHANNELS 6 Xposition Yposition Zposition Zrotation Xrotation Yrotation
                  JOINT RightHandPinky2
                  {
                    OFFSET -4.1367 0 0
                    CHANNELS 6 Xposition Yposition Zposition Zrotation Xrotation Yrotation
                    JOINT RightHandPinky3
                    {
                      OFFSET -2.5948 0 0
                      CHANNELS 6 Xposition Yposition Zposition Zrotation Xrotation Yrotation
                      End Site
                      {
                        OFFSET -2.9239 0 0
                      }
                    }
                  }
                }
              }
            }
          }
        }
      }
    }
  }
  JOINT RightUpLeg
  {
    OFFSET -9.1245 -6.6564 -0.0554
    CHANNELS 6 Xposition Yposition Zposition Zrotation Xrotation Yrotation
    JOINT RightLeg
    {
      OFFSET -0.2447 -40.5954 -0.5145
      CHANNELS 6 Xposition Yposition Zposition Zrotation Xrotation Yrotation
      JOINT RightFoot
      {
        OFFSET 0.2447 -42.0479 -2.0602
        CHANNELS 6 Xposition Yposition Zposition Zrotation Xrotation Yrotation
        JOINT RightToeBase
        {
          OFFSET -0.3734 -10.4922 12.6407
          CHANNELS 6 Xposition Yposition Zposition Zrotation Xrotation Yrotation
          End Site
          {
            OFFSET 0 0 9.9925
          }
        }
      }
    }
  }
  JOINT LeftUpLeg
  {
    OFFSET 9.1245 -6.6564 -0.0554
    CHANNELS 6 Xposition Yposition Zposition Zrotation Xrotation Yrotation
    JOINT LeftLeg
    {
      OFFSET 0.2447 -40.5954 -0.517
      CHANNELS 6 Xposition Yposition Zposition Zrotation Xrotation Yrotation
      JOINT LeftFoot
      {
        OFFSET -0.2447 -42.048 -2.0576
        CHANNELS 6 Xposition Yposition Zposition Zrotation Xrotation Yrotation
        JOINT LeftToeBase
        {
          OFFSET 0.3734 -10.4922 12.6407
          CHANNELS 6 Xposition Yposition Zposition Zrotation Xrotation Yrotation
          End Site
          {
            OFFSET 0 0 9.9925
          }
        }
      }
    }
  }
}
MOTION
Frames: 4
Frame Time: 0.0166667
0.143595 90.2887 1.75943 1.99259 31.7498 6.33186 0 9.9235 -1.2273 3.17871 14.1563 2.33775 -0.0001 11.6454 -1.4223 1.83149 10.4399 1.46503 0.0001 13.3602 -1.6265 1.86412 10.4515 1.3394 3.55271e-015 15.0325 0.7929 -0.478994 -13.1171 -1.32826 -3.55271e-015 10.3218 3.1424 -9.25635 -35.0256 -9.81535 0.0002 18.4747 6.6364 -2.48481e-015 0 1.98785e-016 2.9479 7.6817 9.1207 -2.48481e-015 0 1.98785e-016 -2.9445 7.6817 9.1205 -2.48481e-015 0 1.98785e-016 6.1058 9.1104 0.7056 -11.3686 1.73979 -5.85115 12.655 -0.2659 -2.6009 -59.9875 -18.0479 -0.747691 27.4047 0 1.42109e-014 3.84965e-006 7.24805e-006 -39.9979 27.6145 1.42109e-014 7.10543e-015 -10.6921 -13.5429 -7.98072 12.7755 0 0 -51.9422 -4.08133 6.13748 3.614 7.10543e-015 3.55271e-015 -93.8696 -6.2747 5.86535 3.4598 1.42109e-014 0 -56.4114 -2.62621 4.89458 3.7888 -2.167 3.0031 -7.40027 8.08454 -5.97921 3.6754 -2.122 2.122 2.47789 10.0074 31.4013 3.3944 -1.9597 1.9598 17.7464 7.93603 33.4345 12.2666 -0.2317 2.8221 -60.0961 -0.145669 3.16729 3.892 -5.32907e-015 -1.77636e-015 -93.8696 -6.27469 5.86534 3.4152 1.42109e-014 -3.55271e-015 -56.4114 -2.62622 4.89458 12.147 0.0099 -2.2166 -54.715 -4.37755 8.09402 3.6012 -8.88178e-016 0 -93.9224 -6.28008 5.86497 3.3073 -1.42109e-014 0 -56.4 -2.62524 4.89393 10.9082 -0.2264 -4.7258 -58.6349 -13.5774 12.2355 4.1367 -5.32907e-015 -7.10543e-015 -93.8696 -6.27468 5.86534 2.5948 1.42109e-014 7.10543e-015 -93.8696 -6.27469 5.86534 -6.1057 9.1105 0.7056 11.9326 2.80664 11.1437 -12.655 -0.266 -2.6009 54.9948 -10.5255 28.7435 -27.4047 3.55271e-015 7.10543e-015 -5.30549e-006 5.09056e-006 68.1621 -27.6145 -3.55271e-015 -7.10543e-015 -28.6897 27.8431 23.8658 -12.7755 0 0 37.7229 -2.33175 -1.84804 -3.614 7.10543e-015 0 74.9838 -3.46023 -4.50985 -3.4598 -7.10543e-015 7.10543e-015 74.9836 -3.46021 -4.50982 -3.7888 -2.167 3.0031 4.71466 -7.10449 -0.438849 -3.6754 -2.122 2.122 -2.57128 8.39109 -22.3194 -3.3944 -1.9597 1.9598 -16.9959 5.24635 -26.4497 -12.2666 -0.2317 2.8221 41.0087 12.4941 3.55558 -3.892 0 0 75.218 -3.47869 -4.51473 -3.4152 0 0 75.006 -3.46199 -4.51031 -12.147 0.0099 -2.2166 50.3233 -3.41191 -8.23017 -3.6012 0 0 75.0887 -3.4685 -4.51206 -3.3073 -7.10543e-015 0 74.9674 -3.45894 -4.50947 -10.9082 -0.2264 -4.7258 71.7968 -17.9805 -13.6839 -4.1367 0 0 75.0046 -3.46187 -4.51027 -2.5948 0 0 75.0046 -3.46187 -4.51028 -9.1245 -6.6564 -0.0554 -6.7714 -58.7347 -17.199 -0.2447 -40.5954 -0.5145 -8.77849 51.8391 12.392 0.2447 -42.0479 -2.0602 -5.33662 -25.0057 -21.4056 -0.3734 -10.4922 12.6407 -0.000185916 -0.000137539 1.94586e-005 9.1245 -6.6564 -0.0554 20.6056 -65.0012 20.1353 0.2447 -40.5954 -0.517 -1.6822 66.4994 11.4255 -0.2447 -42.048 -2.0576 -1.87696 -9.19533 2.30577 0.3734 -10.4922 12.6407 -1.76491e-006 -11.3183 2.76636e-006 
0.068435 91.4703 5.90146 2.64506 31.2551 7.09559 0 9.9235 -1.2273 2.57302 13.2773 2.45306 -0.0001 11.6454 -1.4223 1.73024 9.23691 1.55767 0.0001 13.3602 -1.6265 1.74469 9.1354 1.4473 -3.55271e-015 15.0325 0.7929 -0.59777 -12.7544 -1.53811 0 10.3218 3.1424 -9.86595 -30.2306 -9.26112 0.0002 18.4747 6.6364 3.97569e-016 -3.18055e-015 7.95139e-016 2.9479 7.6817 9.1207 3.97569e-016 -3.18055e-015 7.95139e-016 -2.9445 7.6817 9.1205 3.97569e-016 -3.18055e-015 7.95139e-016 6.1058 9.1104 0.7056 -10.9614 1.75621 -5.86193 12.655 -0.2659 -2.6009 -57.1769 -20.0044 0.571472 27.4047 0 0 -5.73803e-006 -2.35647e-006 -39.7653 27.6145 1.42109e-014 0 -10.4011 -15.8016 -8.31353 12.7755 1.42109e-014 1.55431e-015 -51.6381 -4.04872 6.12779 3.614 7.10543e-015 1.77636e-015 -93.322 -6.21875 5.86888 3.4598 -1.42109e-014 0 -55.9235 -2.58459 4.86666 3.7888 -2.167 3.0031 -7.24233 7.90294 -5.98634 3.6754 -2.122 2.122 2.47789 10.0074 31.4013 3.3944 -1.9597 1.9598 17.7464 7.93603 33.4345 12.2666 -0.2317 2.8221 -59.7504 -0.126643 3.13265 3.892 -3.55271e-015 -8.88178e-016 -93.253 -6.2117 5.86929 3.4152 -1.42109e-014 -1.77636e-015 -55.8656 -2.57968 4.86332 12.147 0.0099 -2.2166 -54.4438 -4.34807 8.09903 3.6012 8.88178e-015 0 -93.4327 -6.23007 5.86821 3.3073 0 0 -55.9613 -2.58781 4.86883 10.9082 -0.2264 -4.7258 -58.3913 -13.5259 12.2678 4.1367 -7.10543e-015 0 -93.4294 -6.22972 5.86822 2.5948 -1.42109e-014 0 -93.4716 -6.23403 5.86797 -6.1057 9.1105 0.7056 12.1619 2.69421 10.8965 -12.655 -0.266 -2.6009 55.753 -8.82399 23.8986 -27.4047 0 0 7.16659e-006 1.04798e-005 65.6253 -27.6145 -3.55271e-015 1.42109e-014 -24.9604 30.7034 21.5135 -12.7755 0 -7.10543e-015 37.4421 -2.30871 -1.82511 -3.614 0 0 74.6315 -3.43251 -4.5023 -3.4598 -3.55271e-015 7.10543e-015 74.6759 -3.43602 -4.50325 -3.7888 -2.167 3.0031 4.71466 -7.10449 -0.438849 -3.6754 -2.122 2.122 -2.57128 8.39109 -22.3194 -3.3944 -1.9597 1.9598 -16.9959 5.24635 -26.4497 -12.2666 -0.2317 2.8221 40.6448 12.5249 3.60903 -3.892 7.10543e-015 7.10543e-015 74.8177 -3.44716 -4.5063 -3.4152 3.55271e-015 0 74.6544 -3.43433 -4.5028 -12.147 0.0099 -2.2166 50.0866 -3.39077 -8.25132 -3.6012 0 0 74.7363 -3.44076 -4.50458 -3.3073 0 0 74.6958 -3.43758 -4.50368 -10.9082 -0.2264 -4.7258 71.5838 -17.9336 -13.7463 -4.1367 -3.55271e-015 3.55271e-015 74.7327 -3.44049 -4.50449 -2.5948 0 0 74.7628 -3.44285 -4.50513 -9.1245 -6.6564 -0.0554 -7.12978 -53.4903 -17.0711 -0.2447 -40.5954 -0.5145 -8.08343 48.4221 11.3825 0.2447 -42.0479 -2.0602 -4.72023 -26.0074 -19.6922 -0.3734 -10.4922 12.6407 -2.3151e-005 -0.229868 1.03327e-005 9.1245 -6.6564 -0.0554 15.7072 -63.8226 16.6918 0.2447 -40.5954 -0.517 -1.34419 59.9344 4.67017 -0.2447 -42.048 -2.0576 -3.72232 -6.81298 8.14839 0.3734 -10.4922 12.6407 -3.5096e-006 -5.93645 8.2418e-006 
-0.00672242 92.7187 10.5273 3.39542 30.4582 7.87948 0 9.9235 -1.2273 1.91031 12.2811 2.43378 -0.0001 11.6454 -1.4223 1.47665 8.00776 1.72476 0.0001 13.3602 -1.6265 1.44777 7.89577 1.63849 3.55271e-015 15.0325 0.7929 -0.822429 -11.7967 -1.70265 3.55271e-015 10.3218 3.1424 -9.80532 -24.4506 -9.05696 0.0002 18.4747 6.6364 7.95139e-016 0 -1.59028e-015 2.9479 7.6817 9.1207 7.95139e-016 0 -1.59028e-015 -2.9445 7.6817 9.1205 7.95139e-016 0 -1.59028e-015 6.1058 9.1104 0.7056 -9.88036 1.78819 -5.95926 12.655 -0.2659 -2.6009 -53.7703 -21.2311 2.35265 27.4047 1.42109e-014 -1.42109e-014 1.3815e-006 1.37556e-006 -39.7147 27.6145 -1.42109e-014 3.55271e-015 -9.92813 -18.2734 -8.25319 12.7755 0 0 -50.7784 -3.95686 6.09946 3.614 3.55271e-015 8.88178e-016 -91.769 -6.05993 5.87598 3.4598 0 -4.44089e-015 -54.5348 -2.46746 4.78525 3.7888 -2.167 3.0031 -6.79889 7.39128 -6.00471 3.6754 -2.122 2.122 2.47789 10.0074 31.4013 3.3944 -1.9597 1.9598 17.7464 7.93603 33.4345 12.2666 -0.2317 2.8221 -58.7775 -0.0742303 3.03457 3.892 -5.32907e-015 1.77636e-015 -91.5109 -6.03351 5.87674 3.4152 0 -4.44089e-016 -54.3174 -2.4493 4.77225 12.147 0.0099 -2.2166 -53.6747 -4.26463 8.11216 3.6012 -3.55271e-015 -4.44089e-016 -92.0392 -6.08758 5.87506 3.3073 0 1.77636e-015 -54.7089 -2.48204 4.79561 10.9082 -0.2264 -4.7258 -57.6986 -13.3789 12.3583 4.1367 -8.88178e-015 -3.55271e-015 -92.1729 -6.10124 5.87455 2.5948 0 -3.55271e-015 -92.3325 -6.11758 5.8739 -6.1057 9.1105 0.7056 12.7353 2.57337 10.2836 -12.655 -0.266 -2.6009 56.0701 -7.78253 19.1945 -27.4047 0 0 -1.0289e-005 -1.90759e-006 62.0952 -27.6145 3.55271e-015 -7.10543e-015 -20.7495 33.5675 19.1244 -12.7755 0 -7.10543e-015 36.6383 -2.24303 -1.75924 -3.614 -7.10543e-015 0 73.6199 -3.35321 -4.47971 -3.4598 7.10543e-015 0 73.7896 -3.36649 -4.48361 -3.7888 -2.167 3.0031 4.71466 -7.10449 -0.438849 -3.6754 -2.122 2.122 -2.57128 8.39109 -22.3194 -3.3944 -1.9597 1.9598 -16.9959 5.24635 -26.4497 -12.2666 -0.2317 2.8221 39.6062 12.6123 3.76303 -3.892 0 7.10543e-015 73.6738 -3.35743 -4.48095 -3.4152 7.10543e-015 -3.55271e-015 73.6446 -3.35514 -4.48027 -12.147 0.0099 -2.2166 49.4065 -3.3301 -8.31107 -3.6012 0 -3.55271e-015 73.7244 -3.36139 -4.4821 -3.3073 0 -3.55271e-015 73.9113 -3.37602 -4.48636 -10.9082 -0.2264 -4.7258 70.9709 -17.7971 -13.925 -4.1367 3.55271e-015 -3.55271e-015 73.9477 -3.37887 -4.48718 -2.5948 -1.42109e-014 0 74.063 -3.38792 -4.48979 -9.1245 -6.6564 -0.0554 -8.80544 -49.5994 -18.0353 -0.2447 -40.5954 -0.5145 -8.17759 48.7186 10.7089 0.2447 -42.0479 -2.0602 -1.82196 -22.4079 -14.2511 -0.3734 -10.4922 12.6407 1.339e-006 -7.52294 1.53589e-006 9.1245 -6.6564 -0.0554 10.3845 -62.1551 12.6911 0.2447 -40.5954 -0.517 -1.0627 50.8845 7.01596 -0.2447 -42.048 -2.0576 -6.75662 -1.87144 5.71538 0.3734 -10.4922 12.6407 9.10284e-008 -5.00441 -1.22637e-005 
-0.043228 93.9794 15.5104 4.05028 29.4238 8.61196 -3.55271e-015 9.9235 -1.2273 1.28155 11.234 2.32239 -0.0001 11.6454 -1.4223 1.12434 6.82721 1.91786 0.0001 13.3602 -1.6265 1.04002 6.7719 1.85351 0 15.0325 0.7929 -1.10016 -10.4368 -1.81597 7.10543e-015 10.3218 3.1424 -9.10852 -18.134 -9.10963 0.0002 18.4747 6.6364 -8.82781e-032 6.36111e-015 7.95139e-016 2.9479 7.6817 9.1207 -8.82781e-032 6.36111e-015 7.95139e-016 -2.9445 7.6817 9.1205 -8.82781e-032 6.36111e-015 7.95139e-016 6.1058 9.1104 0.7056 -8.33761 1.80963 -6.2415 12.655 -0.2659 -2.6009 -50.8224 -22.1123 4.43509 27.4047 -1.42109e-014 0 -7.83336e-006 4.50556e-006 -40.1056 27.6145 -1.42109e-014 5.32907e-015 -8.505 -20.5416 -7.41025 12.7755 0 0 -49.4427 -3.815 6.05271 3.614 -7.10543e-015 3.55271e-015 -89.3455 -5.81175 5.87841 3.4598 0 -1.77636e-015 -52.3577 -2.28789 4.652 3.7888 -2.167 3.0031 -6.11634 6.59861 -6.02826 3.6754 -2.122 2.122 2.47789 10.0074 31.4013 3.3944 -1.9597 1.9598 17.7464 7.93603 33.4345 12.2666 -0.2317 2.8221 -57.2739 0.00346828 2.88128 3.892 -1.06581e-014 3.55271e-015 -88.8051 -5.7564 5.87751 3.4152 -2.84217e-014 0 -51.9002 -2.25081 4.62314 12.147 0.0099 -2.2166 -52.474 -4.13496 8.12952 3.6012 7.10543e-015 3.55271e-015 -89.8555 -5.864 5.87877 3.3073 1.42109e-014 -8.88178e-016 -52.7386 -2.31894 4.6758 10.9082 -0.2264 -4.7258 -56.6139 -13.1462 12.4964 4.1367 1.77636e-015 -3.55271e-015 -90.1967 -5.89894 5.87876 2.5948 1.42109e-014 8.88178e-016 -90.5352 -5.93361 5.87853 -6.1057 9.1105 0.7056 13.4805 2.4527 9.49898 -12.655 -0.266 -2.6009 56.3907 -7.57334 12.3896 -27.4047 -3.55271e-015 0 2.17406e-005 6.28676e-006 58.0575 -27.6145 -3.55271e-015 0 -17.4862 36.5279 18.0033 -12.7755 0 0 35.3695 -2.14036 -1.6546 -3.614 -7.10543e-015 3.55271e-015 72.0166 -3.22835 -4.44103 -3.4598 7.10543e-015 -3.55271e-015 72.3799 -3.25653 -4.4501 -3.7888 -2.167 3.0031 4.71466 -7.10449 -0.438849 -3.6754 -2.122 2.122 -2.57128 8.39109 -22.3194 -3.3944 -1.9597 1.9598 -16.9959 5.24635 -26.4497 -12.2666 -0.2317 2.8221 37.9766 12.7481 4.00781 -3.892 0 -3.55271e-015 71.8674 -3.21677 -4.43725 -3.4152 7.10543e-015 0 72.0439 -3.23045 -4.44172 -12.147 0.0099 -2.2166 48.3286 -3.23432 -8.40291 -3.6012 0 0 72.1206 -3.23641 -4.44365 -3.3073 0 1.77636e-015 72.6596 -3.27828 -4.45696 -10.9082 -0.2264 -4.7258 69.9977 -17.5768 -14.2052 -4.1367 -3.55271e-015 1.77636e-015 72.6952 -3.28106 -4.45782 -2.5948 0 0 72.9435 -3.3004 -4.46382 -9.1245 -6.6564 -0.0554 -9.85539 -45.1332 -18.6852 -0.2447 -40.5954 -0.5145 -8.11511 48.3042 10.0508 0.2447 -42.0479 -2.0602 -0.110131 -17.0324 -8.85431 -0.3734 -10.4922 12.6407 1.17562e-006 -15.8966 5.06677e-007 9.1245 -6.6564 -0.0554 6.01457 -59.0415 9.20722 0.2447 -40.5954 -0.517 -0.909518 42.2611 9.01662 -0.2447 -42.048 -2.0576 -9.88211 1.93173 4.22632 0.3734 -10.4922 12.6407 -4.87752e-007 -3.62451 1.46574e-006 
